<mxfile host="app.diagrams.net" modified="2023-11-29T03:00:41.708Z" agent="Mozilla/5.0 (Windows NT 10.0; Win64; x64; rv:109.0) Gecko/20100101 Firefox/119.0" etag="Y7M9_muvEbdfWf7dHbn-" version="22.1.4" type="github">
  <diagram name="第 1 页" id="gZoeROmIox5KtovJomb4">
    <mxGraphModel dx="1084" dy="825" grid="0" gridSize="10" guides="1" tooltips="1" connect="1" arrows="1" fold="1" page="1" pageScale="1" pageWidth="827" pageHeight="1169" math="0" shadow="0">
      <root>
        <mxCell id="0" />
        <mxCell id="1" parent="0" />
        <mxCell id="JhQzxtDdnRuOIg8W1DeD-62" value="" style="rounded=0;whiteSpace=wrap;html=1;textOpacity=0;opacity=30;strokeWidth=3;fillColor=#f8cecc;strokeColor=#b85450;" vertex="1" parent="1">
          <mxGeometry x="444" y="440" width="320" height="330" as="geometry" />
        </mxCell>
        <mxCell id="JhQzxtDdnRuOIg8W1DeD-37" value="" style="rounded=0;whiteSpace=wrap;html=1;textOpacity=0;opacity=30;strokeWidth=3;fillColor=#f8cecc;strokeColor=#b85450;" vertex="1" parent="1">
          <mxGeometry x="440" y="60" width="320" height="330" as="geometry" />
        </mxCell>
        <mxCell id="JhQzxtDdnRuOIg8W1DeD-38" value="" style="rounded=0;whiteSpace=wrap;html=1;textOpacity=0;opacity=40;strokeWidth=3;fillColor=#d5e8d4;strokeColor=#82b366;" vertex="1" parent="1">
          <mxGeometry x="20" y="60" width="390" height="330" as="geometry" />
        </mxCell>
        <mxCell id="JhQzxtDdnRuOIg8W1DeD-1" value="&lt;div align=&quot;left&quot;&gt;CPU&lt;/div&gt;" style="rounded=0;whiteSpace=wrap;html=1;align=left;fontFamily=Times New Roman;" vertex="1" parent="1">
          <mxGeometry x="120" y="120" width="160" height="60" as="geometry" />
        </mxCell>
        <mxCell id="JhQzxtDdnRuOIg8W1DeD-2" value="&lt;div align=&quot;left&quot;&gt;GPU0&lt;/div&gt;" style="rounded=0;whiteSpace=wrap;html=1;align=left;fontFamily=Times New Roman;" vertex="1" parent="1">
          <mxGeometry x="525" y="120" width="120" height="60" as="geometry" />
        </mxCell>
        <mxCell id="JhQzxtDdnRuOIg8W1DeD-3" value="" style="rounded=0;whiteSpace=wrap;html=1;fontFamily=Times New Roman;" vertex="1" parent="1">
          <mxGeometry x="40" y="260" width="230" height="60" as="geometry" />
        </mxCell>
        <mxCell id="JhQzxtDdnRuOIg8W1DeD-4" value="" style="rounded=0;whiteSpace=wrap;html=1;fontFamily=Times New Roman;" vertex="1" parent="1">
          <mxGeometry x="460" y="260" width="250" height="60" as="geometry" />
        </mxCell>
        <mxCell id="JhQzxtDdnRuOIg8W1DeD-5" value="PCIE" style="rounded=1;whiteSpace=wrap;html=1;fontFamily=Times New Roman;" vertex="1" parent="1">
          <mxGeometry x="360" y="110" width="40" height="230" as="geometry" />
        </mxCell>
        <mxCell id="JhQzxtDdnRuOIg8W1DeD-6" value="&lt;div&gt;page table&lt;/div&gt;" style="rounded=0;whiteSpace=wrap;html=1;fontFamily=Times New Roman;" vertex="1" parent="1">
          <mxGeometry x="190" y="280" width="75" height="20" as="geometry" />
        </mxCell>
        <mxCell id="JhQzxtDdnRuOIg8W1DeD-7" value="&lt;div&gt;page table&lt;/div&gt;" style="rounded=0;whiteSpace=wrap;html=1;fontFamily=Times New Roman;" vertex="1" parent="1">
          <mxGeometry x="630" y="280" width="75" height="20" as="geometry" />
        </mxCell>
        <mxCell id="JhQzxtDdnRuOIg8W1DeD-12" value="IOMMU" style="rounded=0;whiteSpace=wrap;html=1;fontFamily=Times New Roman;" vertex="1" parent="1">
          <mxGeometry x="230" y="140" width="50" height="20" as="geometry" />
        </mxCell>
        <mxCell id="JhQzxtDdnRuOIg8W1DeD-16" value="&lt;div&gt;mem&lt;/div&gt;" style="rounded=0;whiteSpace=wrap;html=1;fontFamily=Times New Roman;" vertex="1" parent="1">
          <mxGeometry x="500" y="280" width="40" height="20" as="geometry" />
        </mxCell>
        <mxCell id="JhQzxtDdnRuOIg8W1DeD-20" value="" style="endArrow=classic;html=1;rounded=0;strokeColor=#FF33FF;fontFamily=Times New Roman;" edge="1" parent="1" source="JhQzxtDdnRuOIg8W1DeD-2" target="JhQzxtDdnRuOIg8W1DeD-7">
          <mxGeometry width="50" height="50" relative="1" as="geometry">
            <mxPoint x="610" y="280" as="sourcePoint" />
            <mxPoint x="660" y="230" as="targetPoint" />
          </mxGeometry>
        </mxCell>
        <mxCell id="JhQzxtDdnRuOIg8W1DeD-21" value="" style="endArrow=classic;html=1;rounded=0;entryX=1;entryY=0.5;entryDx=0;entryDy=0;exitX=-0.039;exitY=0.517;exitDx=0;exitDy=0;exitPerimeter=0;fontFamily=Times New Roman;" edge="1" parent="1" source="JhQzxtDdnRuOIg8W1DeD-7" target="JhQzxtDdnRuOIg8W1DeD-16">
          <mxGeometry width="50" height="50" relative="1" as="geometry">
            <mxPoint x="610" y="280" as="sourcePoint" />
            <mxPoint x="660" y="230" as="targetPoint" />
          </mxGeometry>
        </mxCell>
        <mxCell id="JhQzxtDdnRuOIg8W1DeD-22" value="" style="endArrow=classic;html=1;rounded=0;entryX=1.045;entryY=0.482;entryDx=0;entryDy=0;entryPerimeter=0;exitX=0;exitY=0.5;exitDx=0;exitDy=0;strokeColor=#FF0000;fontFamily=Times New Roman;" edge="1" parent="1" source="JhQzxtDdnRuOIg8W1DeD-7" target="JhQzxtDdnRuOIg8W1DeD-5">
          <mxGeometry width="50" height="50" relative="1" as="geometry">
            <mxPoint x="530" y="280" as="sourcePoint" />
            <mxPoint x="580" y="230" as="targetPoint" />
          </mxGeometry>
        </mxCell>
        <mxCell id="JhQzxtDdnRuOIg8W1DeD-23" value="&lt;div&gt;mem&lt;/div&gt;" style="rounded=0;whiteSpace=wrap;html=1;fontFamily=Times New Roman;" vertex="1" parent="1">
          <mxGeometry x="40" y="280" width="40" height="20" as="geometry" />
        </mxCell>
        <mxCell id="JhQzxtDdnRuOIg8W1DeD-24" value="" style="endArrow=classic;html=1;rounded=0;exitX=0;exitY=0.5;exitDx=0;exitDy=0;entryX=1;entryY=0.5;entryDx=0;entryDy=0;strokeColor=#FF0000;fontFamily=Times New Roman;" edge="1" parent="1" source="JhQzxtDdnRuOIg8W1DeD-5" target="JhQzxtDdnRuOIg8W1DeD-12">
          <mxGeometry width="50" height="50" relative="1" as="geometry">
            <mxPoint x="300" y="190" as="sourcePoint" />
            <mxPoint x="350" y="140" as="targetPoint" />
          </mxGeometry>
        </mxCell>
        <mxCell id="JhQzxtDdnRuOIg8W1DeD-25" value="" style="endArrow=classic;html=1;rounded=0;entryX=1;entryY=0.5;entryDx=0;entryDy=0;exitX=0.5;exitY=1;exitDx=0;exitDy=0;strokeColor=#FF0000;fontFamily=Times New Roman;" edge="1" parent="1" source="JhQzxtDdnRuOIg8W1DeD-12" target="JhQzxtDdnRuOIg8W1DeD-23">
          <mxGeometry width="50" height="50" relative="1" as="geometry">
            <mxPoint x="300" y="190" as="sourcePoint" />
            <mxPoint x="350" y="140" as="targetPoint" />
          </mxGeometry>
        </mxCell>
        <mxCell id="JhQzxtDdnRuOIg8W1DeD-26" value="va" style="text;html=1;align=center;verticalAlign=middle;resizable=0;points=[];autosize=1;strokeColor=none;fillColor=none;fontFamily=Times New Roman;" vertex="1" parent="1">
          <mxGeometry x="615" y="188" width="30" height="30" as="geometry" />
        </mxCell>
        <mxCell id="JhQzxtDdnRuOIg8W1DeD-27" value="&lt;div&gt;iova&lt;/div&gt;" style="text;html=1;align=center;verticalAlign=middle;resizable=0;points=[];autosize=1;strokeColor=none;fillColor=none;fontFamily=Times New Roman;" vertex="1" parent="1">
          <mxGeometry x="460" y="218" width="40" height="30" as="geometry" />
        </mxCell>
        <mxCell id="JhQzxtDdnRuOIg8W1DeD-28" value="&lt;div&gt;pa&lt;/div&gt;" style="text;html=1;align=center;verticalAlign=middle;resizable=0;points=[];autosize=1;strokeColor=none;fillColor=none;fontFamily=Times New Roman;" vertex="1" parent="1">
          <mxGeometry x="115" y="218" width="30" height="30" as="geometry" />
        </mxCell>
        <mxCell id="JhQzxtDdnRuOIg8W1DeD-29" value="&lt;div style=&quot;font-size: 11px;&quot;&gt;&lt;div&gt;&lt;font style=&quot;font-size: 10px;&quot; color=&quot;#0000ff&quot;&gt;local pa&lt;/font&gt;&lt;/div&gt;&lt;/div&gt;" style="text;html=1;align=center;verticalAlign=middle;resizable=0;points=[];autosize=1;strokeColor=none;fillColor=none;fontFamily=Times New Roman;" vertex="1" parent="1">
          <mxGeometry x="555" y="270" width="50" height="50" as="geometry" />
        </mxCell>
        <mxCell id="JhQzxtDdnRuOIg8W1DeD-30" value="" style="endArrow=classic;html=1;rounded=0;exitX=0.372;exitY=1.019;exitDx=0;exitDy=0;exitPerimeter=0;fontFamily=Times New Roman;" edge="1" parent="1" source="JhQzxtDdnRuOIg8W1DeD-1" target="JhQzxtDdnRuOIg8W1DeD-6">
          <mxGeometry width="50" height="50" relative="1" as="geometry">
            <mxPoint x="350" y="290" as="sourcePoint" />
            <mxPoint x="400" y="240" as="targetPoint" />
          </mxGeometry>
        </mxCell>
        <mxCell id="JhQzxtDdnRuOIg8W1DeD-33" value="va" style="edgeLabel;html=1;align=center;verticalAlign=middle;resizable=0;points=[];fontFamily=Times New Roman;" vertex="1" connectable="0" parent="JhQzxtDdnRuOIg8W1DeD-30">
          <mxGeometry x="-0.0819" y="1" relative="1" as="geometry">
            <mxPoint as="offset" />
          </mxGeometry>
        </mxCell>
        <mxCell id="JhQzxtDdnRuOIg8W1DeD-31" value="" style="endArrow=classic;html=1;rounded=0;entryX=-0.033;entryY=0.788;entryDx=0;entryDy=0;entryPerimeter=0;spacing=3;fontFamily=Times New Roman;" edge="1" parent="1" source="JhQzxtDdnRuOIg8W1DeD-6" target="JhQzxtDdnRuOIg8W1DeD-5">
          <mxGeometry width="50" height="50" relative="1" as="geometry">
            <mxPoint x="270" y="291" as="sourcePoint" />
            <mxPoint x="303" y="389" as="targetPoint" />
          </mxGeometry>
        </mxCell>
        <mxCell id="JhQzxtDdnRuOIg8W1DeD-35" value="&lt;div style=&quot;font-size: 10px;&quot;&gt;&lt;font style=&quot;font-size: 10px;&quot; color=&quot;#ff00ff&quot;&gt;bar&lt;/font&gt;&lt;/div&gt;&lt;div style=&quot;font-size: 10px;&quot;&gt;&lt;font style=&quot;font-size: 10px;&quot; color=&quot;#ff00ff&quot;&gt;&lt;font&gt;pa&lt;/font&gt; &lt;/font&gt;&lt;/div&gt;" style="edgeLabel;html=1;align=center;verticalAlign=middle;resizable=0;points=[];fontFamily=Times New Roman;" vertex="1" connectable="0" parent="JhQzxtDdnRuOIg8W1DeD-31">
          <mxGeometry x="-0.0672" y="-3" relative="1" as="geometry">
            <mxPoint x="1" y="16" as="offset" />
          </mxGeometry>
        </mxCell>
        <mxCell id="JhQzxtDdnRuOIg8W1DeD-32" value="" style="endArrow=classic;html=1;rounded=0;entryX=-0.033;entryY=0.788;entryDx=0;entryDy=0;entryPerimeter=0;exitX=1.008;exitY=0.791;exitDx=0;exitDy=0;exitPerimeter=0;fontFamily=Times New Roman;" edge="1" parent="1" source="JhQzxtDdnRuOIg8W1DeD-5">
          <mxGeometry width="50" height="50" relative="1" as="geometry">
            <mxPoint x="406" y="289.5" as="sourcePoint" />
            <mxPoint x="500" y="290.5" as="targetPoint" />
          </mxGeometry>
        </mxCell>
        <mxCell id="JhQzxtDdnRuOIg8W1DeD-39" value="&lt;div&gt;CPU system&lt;/div&gt;" style="text;html=1;align=center;verticalAlign=middle;resizable=0;points=[];autosize=1;strokeColor=none;fillColor=none;" vertex="1" parent="1">
          <mxGeometry x="155" y="400" width="90" height="30" as="geometry" />
        </mxCell>
        <mxCell id="JhQzxtDdnRuOIg8W1DeD-40" value="GPU system" style="text;html=1;align=center;verticalAlign=middle;resizable=0;points=[];autosize=1;strokeColor=none;fillColor=none;" vertex="1" parent="1">
          <mxGeometry x="525" y="399" width="90" height="30" as="geometry" />
        </mxCell>
        <mxCell id="JhQzxtDdnRuOIg8W1DeD-41" value="" style="rounded=0;whiteSpace=wrap;html=1;textOpacity=0;opacity=30;strokeWidth=3;fillColor=#f8cecc;strokeColor=#b85450;" vertex="1" parent="1">
          <mxGeometry x="440" y="440" width="320" height="330" as="geometry" />
        </mxCell>
        <mxCell id="JhQzxtDdnRuOIg8W1DeD-42" value="&lt;div align=&quot;left&quot;&gt;GPU1&lt;/div&gt;" style="rounded=0;whiteSpace=wrap;html=1;align=left;fontFamily=Times New Roman;" vertex="1" parent="1">
          <mxGeometry x="525" y="500" width="120" height="60" as="geometry" />
        </mxCell>
        <mxCell id="JhQzxtDdnRuOIg8W1DeD-43" value="" style="rounded=0;whiteSpace=wrap;html=1;fontFamily=Times New Roman;" vertex="1" parent="1">
          <mxGeometry x="460" y="640" width="250" height="60" as="geometry" />
        </mxCell>
        <mxCell id="JhQzxtDdnRuOIg8W1DeD-44" value="&lt;div&gt;page table&lt;/div&gt;" style="rounded=0;whiteSpace=wrap;html=1;fontFamily=Times New Roman;" vertex="1" parent="1">
          <mxGeometry x="630" y="660" width="75" height="20" as="geometry" />
        </mxCell>
        <mxCell id="JhQzxtDdnRuOIg8W1DeD-45" value="&lt;div&gt;mem&lt;/div&gt;" style="rounded=0;whiteSpace=wrap;html=1;fontFamily=Times New Roman;" vertex="1" parent="1">
          <mxGeometry x="500" y="660" width="40" height="20" as="geometry" />
        </mxCell>
        <mxCell id="JhQzxtDdnRuOIg8W1DeD-46" value="" style="endArrow=classic;html=1;rounded=0;strokeColor=#FF33FF;fontFamily=Times New Roman;" edge="1" parent="1" source="JhQzxtDdnRuOIg8W1DeD-42" target="JhQzxtDdnRuOIg8W1DeD-44">
          <mxGeometry width="50" height="50" relative="1" as="geometry">
            <mxPoint x="610" y="660" as="sourcePoint" />
            <mxPoint x="660" y="610" as="targetPoint" />
          </mxGeometry>
        </mxCell>
        <mxCell id="JhQzxtDdnRuOIg8W1DeD-47" value="" style="endArrow=classic;html=1;rounded=0;entryX=1;entryY=0.5;entryDx=0;entryDy=0;exitX=-0.039;exitY=0.517;exitDx=0;exitDy=0;exitPerimeter=0;fontFamily=Times New Roman;" edge="1" parent="1" source="JhQzxtDdnRuOIg8W1DeD-44" target="JhQzxtDdnRuOIg8W1DeD-45">
          <mxGeometry width="50" height="50" relative="1" as="geometry">
            <mxPoint x="610" y="660" as="sourcePoint" />
            <mxPoint x="660" y="610" as="targetPoint" />
          </mxGeometry>
        </mxCell>
        <mxCell id="JhQzxtDdnRuOIg8W1DeD-48" value="va" style="text;html=1;align=center;verticalAlign=middle;resizable=0;points=[];autosize=1;strokeColor=none;fillColor=none;fontFamily=Times New Roman;" vertex="1" parent="1">
          <mxGeometry x="615" y="568" width="30" height="30" as="geometry" />
        </mxCell>
        <mxCell id="JhQzxtDdnRuOIg8W1DeD-49" value="&lt;div&gt;iova&lt;/div&gt;" style="text;html=1;align=center;verticalAlign=middle;resizable=0;points=[];autosize=1;strokeColor=none;fillColor=none;fontFamily=Times New Roman;" vertex="1" parent="1">
          <mxGeometry x="460" y="598" width="40" height="30" as="geometry" />
        </mxCell>
        <mxCell id="JhQzxtDdnRuOIg8W1DeD-50" value="&lt;div style=&quot;font-size: 11px;&quot;&gt;&lt;div&gt;&lt;font style=&quot;font-size: 10px;&quot; color=&quot;#0000ff&quot;&gt;local pa&lt;/font&gt;&lt;/div&gt;&lt;/div&gt;" style="text;html=1;align=center;verticalAlign=middle;resizable=0;points=[];autosize=1;strokeColor=none;fillColor=none;fontFamily=Times New Roman;" vertex="1" parent="1">
          <mxGeometry x="555" y="650" width="50" height="50" as="geometry" />
        </mxCell>
        <mxCell id="JhQzxtDdnRuOIg8W1DeD-51" value="GPU system" style="text;html=1;align=center;verticalAlign=middle;resizable=0;points=[];autosize=1;strokeColor=none;fillColor=none;" vertex="1" parent="1">
          <mxGeometry x="525" y="779" width="90" height="30" as="geometry" />
        </mxCell>
        <mxCell id="JhQzxtDdnRuOIg8W1DeD-54" value="" style="endArrow=classic;html=1;rounded=0;entryX=0;entryY=0.25;entryDx=0;entryDy=0;exitX=0.75;exitY=1;exitDx=0;exitDy=0;strokeColor=#0000CC;fontFamily=Times New Roman;" edge="1" parent="1" source="JhQzxtDdnRuOIg8W1DeD-12" target="JhQzxtDdnRuOIg8W1DeD-45">
          <mxGeometry width="50" height="50" relative="1" as="geometry">
            <mxPoint x="265" y="170" as="sourcePoint" />
            <mxPoint x="90" y="300" as="targetPoint" />
          </mxGeometry>
        </mxCell>
        <mxCell id="JhQzxtDdnRuOIg8W1DeD-55" value="&lt;font color=&quot;#336600&quot;&gt;p2p &lt;br&gt;bar pa&lt;/font&gt;" style="text;html=1;align=center;verticalAlign=middle;resizable=0;points=[];autosize=1;strokeColor=none;fillColor=none;fontFamily=Times New Roman;fontSize=11;" vertex="1" parent="1">
          <mxGeometry x="345" y="424" width="45" height="38" as="geometry" />
        </mxCell>
        <mxCell id="JhQzxtDdnRuOIg8W1DeD-56" value="Local pa : address inner gpu, [0 size]&lt;br style=&quot;font-size: 14px;&quot;&gt;iova: dma mapped pa&lt;br style=&quot;font-size: 14px;&quot;&gt;&lt;div style=&quot;font-size: 14px;&quot;&gt;bar pa: bios assigned, lspci shows&lt;/div&gt;&lt;div style=&quot;font-size: 14px;&quot;&gt;&lt;br style=&quot;font-size: 14px;&quot;&gt;&lt;/div&gt;" style="text;html=1;align=left;verticalAlign=middle;resizable=0;points=[];autosize=1;strokeColor=none;fillColor=none;fontFamily=Times New Roman;fontSize=14;" vertex="1" parent="1">
          <mxGeometry x="70" y="543" width="230" height="80" as="geometry" />
        </mxCell>
        <mxCell id="JhQzxtDdnRuOIg8W1DeD-57" value="&lt;div&gt;page table&lt;/div&gt;" style="rounded=0;whiteSpace=wrap;html=1;fontFamily=Times New Roman;" vertex="1" parent="1">
          <mxGeometry x="623" y="266" width="84" height="39" as="geometry" />
        </mxCell>
        <mxCell id="JhQzxtDdnRuOIg8W1DeD-60" value="&lt;div&gt;MMU&lt;/div&gt;" style="rounded=0;whiteSpace=wrap;html=1;" vertex="1" parent="1">
          <mxGeometry x="625" y="216" width="52" height="29" as="geometry" />
        </mxCell>
        <mxCell id="JhQzxtDdnRuOIg8W1DeD-61" value="&lt;div&gt;MMU&lt;/div&gt;" style="rounded=0;whiteSpace=wrap;html=1;" vertex="1" parent="1">
          <mxGeometry x="629" y="596" width="52" height="29" as="geometry" />
        </mxCell>
      </root>
    </mxGraphModel>
  </diagram>
</mxfile>
